<?xml version="1.0" standalone="no"?>
<!DOCTYPE svg PUBLIC "-//W3C//DTD SVG 20010904//EN"
 "http://www.w3.org/TR/2001/REC-SVG-20010904/DTD/svg10.dtd">
<svg version="1.0" xmlns="http://www.w3.org/2000/svg"
 width="558.000000pt" height="558.000000pt" viewBox="0 0 558.000000 558.000000"
 preserveAspectRatio="xMidYMid meet">
<metadata>
Created by potrace 1.14, written by Peter Selinger 2001-2017
</metadata>
<g transform="translate(0.000000,558.000000) scale(0.100000,-0.100000)"
fill="#000000" stroke="none">
<path d="M840 2950 l0 -1800 220 0 220 0 2 892 3 893 476 -1 476 0 56 -28
c112 -54 223 -209 281 -391 62 -195 69 -265 71 -730 1 -213 6 -360 12 -375 9
-20 3 -49 -27 -148 -50 -161 -52 -172 -40 -172 13 0 22 22 61 148 l31 103 28
-39 c71 -99 180 -152 310 -152 l70 0 0 488 c0 518 -4 573 -51 715 l-22 69 27
91 c15 51 31 106 36 122 4 17 40 134 80 260 69 222 90 288 125 405 93 309 187
605 195 613 4 5 14 -18 23 -50 8 -32 26 -94 40 -138 14 -44 48 -154 77 -245
28 -91 53 -169 54 -175 1 -5 14 -48 28 -95 49 -157 119 -383 180 -580 33 -107
78 -253 100 -325 22 -71 48 -157 58 -190 59 -197 312 -1010 316 -1017 3 -4
107 -8 231 -8 l225 0 -6 23 c-4 12 -13 45 -21 72 -14 50 -488 1589 -569 1850
-66 209 -121 389 -151 490 -15 50 -31 101 -35 115 -5 14 -27 84 -49 155 -125
413 -262 853 -271 874 -6 14 -15 20 -19 15 -8 -8 -71 -202 -124 -379 -9 -27
-27 -88 -42 -135 -15 -47 -35 -112 -45 -145 -10 -33 -48 -157 -84 -275 -188
-605 -277 -894 -281 -910 -2 -8 -17 -58 -34 -110 -16 -52 -42 -135 -56 -183
l-27 -88 -34 58 c-121 200 -315 349 -538 413 -78 22 -91 29 -53 31 35 2 40 3
53 11 6 4 23 9 38 12 41 7 188 82 243 123 233 174 370 433 375 713 6 257 -86
485 -267 665 -129 129 -263 201 -470 252 -16 4 -362 9 -767 10 l-738 4 0
-1801z m1452 1746 c209 -104 351 -447 351 -846 0 -460 -181 -836 -423 -878
-25 -4 -245 -8 -490 -7 l-445 0 -6 755 c-3 415 -7 762 -10 770 -27 84 -123
203 -175 216 -13 3 -22 9 -20 13 2 3 265 6 583 6 l578 -1 57 -28z"/>
</g>
</svg>
