<?xml version="1.0" encoding="UTF-8"?>
<svg width="43px" height="47px" viewBox="0 0 43 47" version="1.1" xmlns="http://www.w3.org/2000/svg" xmlns:xlink="http://www.w3.org/1999/xlink">
    <title>Artboard</title>
    <g id="Artboard" stroke="none" stroke-width="1" fill="none" fill-rule="evenodd">
        <g id="logo-radostina-aleksieva-ui-designer" transform="translate(5.000000, 8.000000)" fill="#000000" fill-rule="nonzero">
            <g id="Shape">
                <path d="M18.96875,7.644531 C18.96875,3.414063 15.554688,0 11.320312,0 L0.085938,0 C0.042969,0 0,0.042969 0,0.085938 L0,30.2421878 C0,30.2851565 0.042969,30.328125 0.085938,30.328125 L3.585938,30.328125 C3.671875,30.328125 3.714844,30.2851565 3.714844,30.2421878 L3.714844,15.292969 L11.320312,15.292969 C13.480469,15.292969 15.25,18.621094 15.25,22.679688 L15.25,27.347657 C15.25,28.988281 16.589844,30.328125 18.234375,30.328125 L18.878906,30.328125 C18.921875,30.328125 19.011719,30.2851565 19.011719,30.2421878 L19.011719,22.679688 C19.011719,18.921875 16.246094,15.769531 12.660156,15.164063 C16.246094,14.515625 18.96875,11.40625 18.96875,7.644531 Z M1.859375,0.214844 L11.320312,0.214844 C13.480469,0.214844 15.25,3.542969 15.25,7.644531 C15.25,11.707031 13.480469,15.035157 11.320312,15.035157 L3.714844,15.035157 L3.714844,2.980469 C3.714844,1.726563 2.9375,0.648438 1.859375,0.214844 Z"></path>
            </g>
            <g id="Path" transform="translate(14.626476, 0.375458)">
                <path d="M0.0177983426,30.242188 C-0.0251706574,30.2851568 0.0177983426,30.371094 0.0607673426,30.371094 C0.103736343,30.371094 0.103736343,30.371094 0.103736343,30.371094 C0.146704343,30.371094 0.189673343,30.3281255 0.232642343,30.2851568 L7.66623634,6.394532 L15.0959233,30.2851568 C15.1388923,30.3281255 15.1818603,30.371094 15.2248293,30.371094 L18.8967043,30.371094 C18.8967043,30.371094 18.9396733,30.371094 18.9865483,30.3281255 C18.9865483,30.2851568 18.9865483,30.2851568 18.9865483,30.242188 L9.60764234,0.085938 C9.56467334,0.042969 9.56467334,0.042969 9.56467334,0.042969 C9.56467334,0.042969 9.56467334,0.042969 9.52170434,0.042969 C9.52170434,0.042969 9.52170434,0 9.47873634,0 C9.47873634,0 9.47873634,0.042969 9.47873634,0.042969 C9.43576734,0.042969 9.43576734,0.042969 9.43576734,0.042969 C9.43576734,0.042969 9.43576734,0.042969 9.39279834,0.085938 L7.53732934,6.003907 L0.0177983426,30.242188 Z"></path>
            </g>
        </g>
    </g>
</svg>