<?xml version="1.0" encoding="UTF-8"?>
<svg width="69px" height="54px" viewBox="0 0 69 54" version="1.1" xmlns="http://www.w3.org/2000/svg" xmlns:xlink="http://www.w3.org/1999/xlink">
    <title>logox150</title>
    <defs>
        <polygon id="path-1" points="0 0 45.75 0 45.75 7.5 0 7.5"></polygon>
    </defs>
    <g id="Page-1" stroke="none" stroke-width="1" fill="none" fill-rule="evenodd">
        <g id="logox150" transform="translate(0.263461, 0.918093)">
            <g id="Group" transform="translate(13.161351, 0.000000)" fill="#000000" fill-rule="nonzero">
                <g id="Shape">
                    <path d="M18.96875,7.644531 C18.96875,3.414063 15.554688,0 11.320312,0 L0.085938,0 C0.042969,0 0,0.042969 0,0.085938 L0,30.2421878 C0,30.2851565 0.042969,30.328125 0.085938,30.328125 L3.585938,30.328125 C3.671875,30.328125 3.714844,30.2851565 3.714844,30.2421878 L3.714844,15.292969 L11.320312,15.292969 C13.480469,15.292969 15.25,18.621094 15.25,22.679688 L15.25,27.347657 C15.25,28.988281 16.589844,30.328125 18.234375,30.328125 L18.878906,30.328125 C18.921875,30.328125 19.011719,30.2851565 19.011719,30.2421878 L19.011719,22.679688 C19.011719,18.921875 16.246094,15.769531 12.660156,15.164063 C16.246094,14.515625 18.96875,11.40625 18.96875,7.644531 Z M1.859375,0.214844 L11.320312,0.214844 C13.480469,0.214844 15.25,3.542969 15.25,7.644531 C15.25,11.707031 13.480469,15.035157 11.320312,15.035157 L3.714844,15.035157 L3.714844,2.980469 C3.714844,1.726563 2.9375,0.648438 1.859375,0.214844 Z"></path>
                </g>
            </g>
            <g id="Clipped" transform="translate(22.689664, 25.535032)">
                <mask id="mask-2" fill="white">
                    <use xlink:href="#path-1"></use>
                </mask>
                <g id="Path"></g>
                <polyline id="Path" fill="#F8F8F8" fill-rule="nonzero" mask="url(#mask-2)" points="0.019531 0 45.730469 0 45.730469 7.5 0.019531 7.5 0.019531 0"></polyline>
            </g>
            <g id="Group" transform="translate(27.787827, 0.375458)" fill="#000000" fill-rule="nonzero">
                <g transform="translate(-0.000000, 0.000000)" id="Path">
                    <path d="M0.0177983426,30.242188 C-0.0251706574,30.2851568 0.0177983426,30.371094 0.0607673426,30.371094 C0.103736343,30.371094 0.103736343,30.371094 0.103736343,30.371094 C0.146704343,30.371094 0.189673343,30.3281255 0.232642343,30.2851568 L7.66623634,6.394532 L15.0959233,30.2851568 C15.1388923,30.3281255 15.1818603,30.371094 15.2248293,30.371094 L18.8967043,30.371094 C18.8967043,30.371094 18.9396733,30.371094 18.9865483,30.3281255 C18.9865483,30.2851568 18.9865483,30.2851568 18.9865483,30.242188 L9.60764234,0.085938 C9.56467334,0.042969 9.56467334,0.042969 9.56467334,0.042969 C9.56467334,0.042969 9.56467334,0.042969 9.52170434,0.042969 C9.52170434,0.042969 9.52170434,0 9.47873634,0 C9.47873634,0 9.47873634,0.042969 9.47873634,0.042969 C9.43576734,0.042969 9.43576734,0.042969 9.43576734,0.042969 C9.43576734,0.042969 9.43576734,0.042969 9.39279834,0.085938 L7.53732934,6.003907 L0.0177983426,30.242188 Z"></path>
                </g>
            </g>
            <g id="Group" transform="translate(0.000000, 43.690521)" fill="#000000" fill-rule="nonzero">
                <g id="Path">
                    <path d="M0.1875,0 L0.1875,4.015625 C0.1875,4.839844 0.363281,5.4375 0.71875,5.8125 C1.082031,6.1875 1.566406,6.375 2.171875,6.375 C2.773437,6.375 3.25,6.1875 3.59375,5.8125 C3.945313,5.4375 4.125,4.839844 4.125,4.015625 L4.125,0 L4.3125,0 L4.3125,4.015625 C4.3125,4.871094 4.117187,5.507812 3.734375,5.921875 C3.359375,6.328125 2.835937,6.53125 2.171875,6.53125 C1.503906,6.53125 0.972656,6.328125 0.578125,5.921875 C0.191406,5.507812 0,4.871094 0,4.015625 L0,0 L0.1875,0 Z"></path>
                </g>
            </g>
            <g id="Group" transform="translate(5.423261, 43.690521)" fill="#000000" fill-rule="nonzero">
                <g id="Path">
                    <polygon points="0.59375 0 0.59375 6.46875 0.40625 6.46875 0.40625 0"></polygon>
                </g>
            </g>
            <g id="Group" transform="translate(9.742330, 41.565521)" fill="#000000" fill-rule="nonzero">
                <g id="Path">
                    <polygon points="2.734375 0 0.171875 10.03125 0 10.03125 2.546875 0"></polygon>
                </g>
            </g>
            <g id="Group" transform="translate(16.161958, 43.690521)" fill="#000000" fill-rule="nonzero">
                <g id="Path">
                    <path d="M0.1875,0 L0.1875,4.015625 C0.1875,4.839844 0.363281,5.4375 0.71875,5.8125 C1.082031,6.1875 1.566406,6.375 2.171875,6.375 C2.773437,6.375 3.25,6.1875 3.59375,5.8125 C3.945313,5.4375 4.125,4.839844 4.125,4.015625 L4.125,0 L4.3125,0 L4.3125,4.015625 C4.3125,4.871094 4.117187,5.507812 3.734375,5.921875 C3.359375,6.328125 2.835937,6.53125 2.171875,6.53125 C1.503906,6.53125 0.972656,6.328125 0.578125,5.921875 C0.191406,5.507812 0,4.871094 0,4.015625 L0,0 L0.1875,0 Z"></path>
                </g>
            </g>
            <g id="Group" transform="translate(21.491469, 43.690521)" fill="#000000" fill-rule="nonzero">
                <g id="Path">
                    <polygon points="2.109375 3.234375 4.03125 6.46875 3.828125 6.46875 1.984375 3.359375 0.203125 6.46875 0 6.46875 1.890625 3.1875 0 0 0.203125 0 2.015625 3.0625 3.828125 0 4.03125 0"></polygon>
                </g>
            </g>
            <g id="Group" transform="translate(29.254238, 43.690521)" fill="#000000" fill-rule="nonzero">
                <g id="Shape">
                    <path d="M1.703125,0 C2.816406,0 3.660156,0.28125 4.234375,0.84375 C4.816406,1.40625 5.109375,2.203125 5.109375,3.234375 C5.109375,4.265625 4.816406,5.0625 4.234375,5.625 C3.660156,6.1875 2.816406,6.46875 1.703125,6.46875 L0,6.46875 L0,0 L1.703125,0 Z M1.703125,6.296875 C2.765625,6.296875 3.566406,6.03125 4.109375,5.5 C4.660156,4.960938 4.9375,4.203125 4.9375,3.234375 C4.9375,2.265625 4.660156,1.515625 4.109375,0.984375 C3.566406,0.445312 2.765625,0.171875 1.703125,0.171875 L0.1875,0.171875 L0.1875,6.296875 L1.703125,6.296875 Z"></path>
                </g>
            </g>
            <g id="Group" transform="translate(35.473613, 45.128021)" fill="#000000" fill-rule="nonzero">
                <g transform="translate(-0.000000, 0.000000)" id="Shape">
                    <path d="M2.390625,4.9375 C2.953125,4.9375 3.421875,4.796875 3.796875,4.515625 C4.179687,4.226562 4.410156,3.835938 4.484375,3.34375 L4.671875,3.34375 C4.585937,3.867188 4.34375,4.289062 3.9375,4.609375 C3.539063,4.9335938 3.023437,5.09375 2.390625,5.09375 C1.929687,5.09375 1.519531,4.9960938 1.15625,4.796875 C0.800781,4.589844 0.519531,4.292969 0.3125,3.90625 C0.101563,3.523438 0,3.070312 0,2.546875 C0,2.027344 0.101563,1.574219 0.3125,1.1875 C0.519531,0.804688 0.800781,0.511719 1.15625,0.3125 C1.519531,0.105469 1.929687,0 2.390625,0 C2.878906,0 3.289063,0.105469 3.625,0.3125 C3.96875,0.523438 4.226563,0.789062 4.40625,1.109375 C4.582031,1.433594 4.671875,1.777344 4.671875,2.140625 C4.671875,2.359375 4.664063,2.527344 4.65625,2.640625 L0.1875,2.640625 C0.195313,3.140625 0.300781,3.5625 0.5,3.90625 C0.707031,4.25 0.976563,4.511719 1.3125,4.6875 C1.644531,4.855469 2.003906,4.9375 2.390625,4.9375 Z M2.390625,0.171875 C2.003906,0.171875 1.644531,0.257812 1.3125,0.421875 C0.976563,0.589844 0.707031,0.84375 0.5,1.1875 C0.300781,1.53125 0.195313,1.960938 0.1875,2.46875 L4.5,2.46875 C4.53125,1.960938 4.445313,1.53125 4.25,1.1875 C4.0625,0.84375 3.800781,0.589844 3.46875,0.421875 C3.132813,0.257812 2.773437,0.171875 2.390625,0.171875 Z"></path>
                </g>
            </g>
            <g id="Group" transform="translate(41.184555, 45.128021)" fill="#000000" fill-rule="nonzero">
                <g id="Path">
                    <path d="M1.890625,5.09375 C1.347656,5.09375 0.910156,4.984375 0.578125,4.765625 C0.242187,4.546875 0.050781,4.214844 0,3.765625 L0.171875,3.765625 C0.210937,4.132812 0.378906,4.417969 0.671875,4.625 C0.960937,4.835938 1.375,4.9375 1.90625,4.9375 C2.175781,4.9375 2.410156,4.886719 2.609375,4.78125 C2.816406,4.679688 2.972656,4.539062 3.078125,4.359375 C3.191406,4.183594 3.25,3.996094 3.25,3.796875 C3.25,3.570312 3.1875,3.386719 3.0625,3.25 C2.9375,3.117188 2.78125,3.011719 2.59375,2.9375 C2.40625,2.867188 2.148437,2.789062 1.828125,2.703125 C1.460937,2.609375 1.171875,2.515625 0.953125,2.421875 C0.734375,2.328125 0.546875,2.1875 0.390625,2 C0.234375,1.8125 0.15625,1.5625 0.15625,1.25 C0.15625,1.03125 0.21875,0.828125 0.34375,0.640625 C0.476563,0.445312 0.664063,0.289062 0.90625,0.171875 C1.144531,0.058594 1.410156,0 1.703125,0 C2.203125,0 2.601563,0.132812 2.90625,0.390625 C3.21875,0.640625 3.382813,0.992188 3.40625,1.4375 L3.234375,1.4375 C3.210937,1.0625 3.070313,0.761719 2.8125,0.53125 C2.550781,0.292969 2.179687,0.171875 1.703125,0.171875 C1.441406,0.171875 1.207031,0.226562 1,0.328125 C0.789063,0.421875 0.625,0.554688 0.5,0.71875 C0.382813,0.886719 0.328125,1.0625 0.328125,1.25 C0.328125,1.523438 0.394531,1.742188 0.53125,1.90625 C0.675781,2.0625 0.851563,2.183594 1.0625,2.265625 C1.269531,2.351562 1.546875,2.433594 1.890625,2.515625 C2.234375,2.621094 2.503906,2.714844 2.703125,2.796875 C2.898437,2.871094 3.066406,2.992188 3.203125,3.15625 C3.347656,3.3125 3.421875,3.527344 3.421875,3.796875 C3.421875,4.039062 3.351563,4.257812 3.21875,4.453125 C3.09375,4.652344 2.910156,4.808594 2.671875,4.921875 C2.441406,5.03515625 2.179687,5.09375 1.890625,5.09375 Z"></path>
                </g>
            </g>
            <g id="Group" transform="translate(45.781207, 43.440521)" fill="#000000" fill-rule="nonzero">
                <g id="Shape">
                    <path d="M0.234375,0.484375 C0.160156,0.484375 0.101563,0.464844 0.0625,0.421875 C0.019531,0.382812 0,0.320312 0,0.234375 C0,0.164062 0.019531,0.105469 0.0625,0.0625 C0.101563,0.023438 0.160156,0 0.234375,0 C0.296875,0 0.347656,0.023438 0.390625,0.0625 C0.441406,0.105469 0.46875,0.164062 0.46875,0.234375 C0.46875,0.320312 0.441406,0.382812 0.390625,0.421875 C0.347656,0.464844 0.296875,0.484375 0.234375,0.484375 Z M0.328125,1.75 L0.328125,6.71875 L0.140625,6.71875 L0.140625,1.75 L0.328125,1.75 Z"></path>
                </g>
            </g>
            <g id="Group" transform="translate(47.434197, 45.128021)" fill="#000000" fill-rule="nonzero">
                <g id="Shape">
                    <path d="M2.421875,0 C2.992187,0 3.472656,0.152344 3.859375,0.453125 C4.253906,0.746094 4.519531,1.117188 4.65625,1.5625 L4.65625,0.0625 L4.84375,0.0625 L4.84375,5.21875 C4.84375,5.675781 4.738281,6.070312 4.53125,6.40625 C4.332031,6.75 4.066406,7.007812 3.734375,7.1875 C3.398437,7.363281 3.035156,7.453125 2.640625,7.453125 C2.035156,7.453125 1.535156,7.304688 1.140625,7.015625 C0.753906,6.722656 0.484375,6.332031 0.328125,5.84375 L0.515625,5.84375 C0.660156,6.289062 0.910156,6.644531 1.265625,6.90625 C1.628906,7.164062 2.085937,7.296875 2.640625,7.296875 C3.015625,7.296875 3.351563,7.207031 3.65625,7.03125 C3.96875,6.863281 4.210937,6.625 4.390625,6.3125 C4.566406,6 4.65625,5.632812 4.65625,5.21875 L4.65625,3.53125 C4.519531,3.992188 4.253906,4.367188 3.859375,4.65625 C3.472656,4.9492188 2.992187,5.09375 2.421875,5.09375 C1.953125,5.09375 1.53125,4.9960938 1.15625,4.796875 C0.789063,4.589844 0.503906,4.292969 0.296875,3.90625 C0.097656,3.523438 0,3.070312 0,2.546875 C0,2.027344 0.097656,1.578125 0.296875,1.203125 C0.503906,0.820312 0.789063,0.523438 1.15625,0.3125 C1.53125,0.105469 1.953125,0 2.421875,0 Z M4.65625,2.546875 C4.65625,2.078125 4.554687,1.667969 4.359375,1.3125 C4.171875,0.949219 3.90625,0.667969 3.5625,0.46875 C3.226563,0.273438 2.847656,0.171875 2.421875,0.171875 C1.960937,0.171875 1.566406,0.265625 1.234375,0.453125 C0.898437,0.640625 0.640625,0.917969 0.453125,1.28125 C0.273437,1.636719 0.1875,2.058594 0.1875,2.546875 C0.1875,3.039062 0.273437,3.464844 0.453125,3.828125 C0.640625,4.183594 0.898437,4.460938 1.234375,4.65625 C1.566406,4.84375 1.960937,4.9375 2.421875,4.9375 C2.847656,4.9375 3.226563,4.839844 3.5625,4.640625 C3.90625,4.433594 4.171875,4.152344 4.359375,3.796875 C4.554687,3.445312 4.65625,3.027344 4.65625,2.546875 Z"></path>
                </g>
            </g>
            <g id="Group" transform="translate(53.837330, 45.081146)" fill="#000000" fill-rule="nonzero">
                <g id="Path">
                    <path d="M2.125,0 C2.707031,0 3.1875,0.183594 3.5625,0.546875 C3.9375,0.914063 4.125,1.460937 4.125,2.1875 L4.125,5.078125 L3.953125,5.078125 L3.953125,2.171875 C3.953125,1.515625 3.785156,1.023437 3.453125,0.6875 C3.128906,0.34375 2.6875,0.171875 2.125,0.171875 C1.539062,0.171875 1.070312,0.367187 0.71875,0.75 C0.363281,1.136719 0.1875,1.699219 0.1875,2.4375 L0.1875,5.078125 L0,5.078125 L0,0.109375 L0.1875,0.109375 L0.1875,1.421875 C0.300781,0.964844 0.53125,0.617187 0.875,0.375 C1.226562,0.125 1.644531,0 2.125,0 Z"></path>
                </g>
            </g>
        </g>
    </g>
</svg>